# xmcd
#
# Track frame offsets: 
#        150
#        25024
#        55543
#        71638
#        84590
#
# Disc length: 1361 seconds
#
# Revision: 0
# Processed by: cddbd v1.5.2PL0 Copyright (c) Steve Scherf et al.
# Submitted via: ExactAudioCopy v0.99pb4
#
DISCID=34054f05
DTITLE=Aeroblues - Demo
DYEAR=2011
DGENRE=Blues
TTITLE0=Zyc wiara
TTITLE1=Wzdluz wiezy strazniczek
TTITLE2=Jak kamien
TTITLE3=Piosenka o pozadaniu
TTITLE4=Nie to samo
EXTD=
EXTT0=
EXTT1=
EXTT2=
EXTT3=
EXTT4=
PLAYORDER=
